<svg id="Layer_1" enable-background="new 0 0 256 256" height="512" viewBox="0 0 256 256" width="512" xmlns="http://www.w3.org/2000/svg"><path d="m225.072 108.476h-194.144c-8.014 0-14.511 6.497-14.511 14.511v101.759c0 8.014 6.497 14.511 14.511 14.511h194.144c8.014 0 14.511-6.497 14.511-14.511v-101.759c0-8.014-6.497-14.511-14.511-14.511z" fill="#fae6ca"/><g fill="#3a312a"><path d="m225.072 106.976h-72.922c-.828 0-1.5.672-1.5 1.5s.672 1.5 1.5 1.5h72.922c7.174 0 13.011 5.837 13.011 13.011v101.759c0 7.175-5.837 13.012-13.011 13.012h-194.144c-7.174 0-13.011-5.837-13.011-13.012v-101.76c0-7.174 5.837-13.011 13.011-13.011h107.421c.828 0 1.5-.672 1.5-1.5s-.672-1.5-1.5-1.5h-107.421c-8.828 0-16.011 7.183-16.011 16.011v101.759c0 8.829 7.183 16.012 16.011 16.012h194.145c8.828 0 16.011-7.183 16.011-16.012v-101.759c-.001-8.828-7.184-16.01-16.012-16.01z"/><path d="m90.57 106.977c-.828 0-1.5.672-1.5 1.5v42.902c0 .828.672 1.5 1.5 1.5s1.5-.672 1.5-1.5v-42.902c0-.829-.672-1.5-1.5-1.5z"/><path d="m90.57 165.559c-.828 0-1.5.672-1.5 1.5v72.197c0 .828.672 1.5 1.5 1.5s1.5-.672 1.5-1.5v-72.197c0-.829-.672-1.5-1.5-1.5z"/><path d="m165.43 106.977c-.828 0-1.5.672-1.5 1.5v130.779c0 .828.672 1.5 1.5 1.5s1.5-.672 1.5-1.5v-130.779c0-.829-.672-1.5-1.5-1.5z"/></g><path d="m47.516 26.674c-.974 11.563-13.025 13.389-13.025 13.389 10.347.487 12.925 14.059 12.925 14.059.221-9.677 13.321-14.202 13.321-14.202-9.813-.587-13.221-13.246-13.221-13.246z" fill="#d6df58"/><path d="m60.828 38.423c-8.604-.515-11.833-12.024-11.864-12.141-.191-.702-.849-1.168-1.584-1.102-.725.066-1.298.642-1.359 1.367-.86 10.216-11.313 11.965-11.754 12.033-.763.116-1.314.791-1.273 1.561.04.771.657 1.385 1.428 1.421 9.028.425 11.499 12.718 11.522 12.843.138.711.76 1.217 1.473 1.217.042 0 .084-.002.126-.005.765-.064 1.357-.693 1.375-1.46.193-8.509 12.191-12.777 12.313-12.819.676-.234 1.092-.914.994-1.622-.1-.71-.683-1.251-1.397-1.293zm-13.566 10.346c-1.356-3.131-3.709-6.907-7.587-8.877 2.931-1.404 6.408-3.913 8.201-8.272 1.552 3.071 4.2 6.88 8.335 8.723-3.008 1.638-6.923 4.404-8.949 8.426z" fill="#3a312a"/><path d="m25.817 43.654c-.689 8.179-9.212 9.47-9.212 9.47 7.318.344 9.142 9.944 9.142 9.944.156-6.844 9.422-10.045 9.422-10.045-6.941-.415-9.352-9.369-9.352-9.369z" fill="#d6df58"/><path d="m35.259 51.526c-5.766-.345-7.972-8.186-7.994-8.265-.189-.702-.865-1.154-1.581-1.102-.726.065-1.3.643-1.361 1.368-.578 6.87-7.646 8.066-7.941 8.113-.763.116-1.313.791-1.273 1.561.04.771.657 1.385 1.428 1.421 6.034.284 7.723 8.644 7.738 8.726.136.713.759 1.22 1.473 1.22.041 0 .083-.002.125-.005.765-.063 1.358-.693 1.376-1.461.13-5.708 8.331-8.633 8.412-8.661.676-.234 1.093-.913.996-1.622-.099-.709-.684-1.251-1.398-1.293zm-9.585 6.795c-.924-1.886-2.339-3.947-4.446-5.279 1.856-1.042 3.697-2.63 4.87-4.917 1.058 1.874 2.654 3.954 4.941 5.224-1.85 1.1-3.988 2.74-5.365 4.972z" fill="#3a312a"/><path d="m25.817 16.997c-.689 8.179-9.212 9.471-9.212 9.471 7.318.344 9.142 9.944 9.142 9.944.156-6.845 9.422-10.045 9.422-10.045-6.941-.416-9.352-9.37-9.352-9.37z" fill="#d6df58"/><path d="m35.259 24.869c-5.766-.345-7.972-8.187-7.994-8.266-.189-.702-.865-1.168-1.581-1.102-.726.065-1.3.643-1.361 1.368-.578 6.871-7.646 8.066-7.941 8.113-.763.116-1.313.791-1.273 1.561.04.771.657 1.385 1.428 1.421 6.034.284 7.723 8.645 7.738 8.727.136.713.759 1.22 1.473 1.22.041 0 .083-.002.125-.005.765-.063 1.358-.693 1.376-1.461.13-5.708 8.331-8.633 8.412-8.661.676-.234 1.093-.913.996-1.622-.099-.709-.684-1.251-1.398-1.293zm-9.585 6.795c-.924-1.887-2.339-3.947-4.446-5.28 1.856-1.041 3.697-2.63 4.87-4.916 1.058 1.873 2.654 3.954 4.941 5.224-1.85 1.1-3.988 2.74-5.365 4.972z" fill="#3a312a"/><path d="m165.525 51.617c3.736-3.642 1.675-9.987-3.489-10.737l-16.343-2.375c-2.05-.298-3.823-1.586-4.74-3.444l-7.309-14.809c-2.309-4.679-8.981-4.679-11.29 0l-7.309 14.809c-.917 1.858-2.69 3.146-4.74 3.444l-16.341 2.375c-5.163.75-7.225 7.095-3.489 10.737l11.826 11.527c1.484 1.446 2.161 3.53 1.81 5.572l-2.792 16.277c-.882 5.143 4.516 9.064 9.134 6.636l14.617-7.685c1.834-.964 4.025-.964 5.859 0l14.617 7.685c4.618 2.428 10.016-1.493 9.134-6.636l-2.792-16.277c-.35-2.042.327-4.125 1.811-5.572z" fill="#d6df58"/><path d="m166.572 52.691c2.141-2.086 2.896-5.147 1.973-7.99s-3.335-4.876-6.293-5.306l-16.343-2.375c-1.562-.227-2.911-1.207-3.61-2.623l-7.309-14.81c-1.322-2.68-4.001-4.345-6.99-4.345s-5.668 1.665-6.99 4.345l-7.309 14.81c-.699 1.416-2.049 2.396-3.61 2.623l-16.343 2.375c-2.958.43-5.369 2.463-6.293 5.306s-.168 5.904 1.973 7.99l11.826 11.527c1.13 1.102 1.646 2.688 1.379 4.244l-2.792 16.276c-.505 2.946.684 5.867 3.101 7.624 2.418 1.757 5.564 1.984 8.21.594l14.617-7.685c1.396-.734 3.066-.734 4.463 0l14.617 7.685c1.151.604 2.396.903 3.635.903 1.609 0 3.208-.504 4.575-1.497 2.417-1.757 3.605-4.678 3.101-7.624l-2.792-16.275c-.267-1.557.249-3.144 1.379-4.245zm-16.162 16.28 2.792 16.276c.315 1.839-.397 3.592-1.907 4.689-1.511 1.097-3.397 1.232-5.05.364l-14.617-7.685c-1.136-.597-2.382-.895-3.628-.895s-2.492.298-3.628.895l-14.617 7.685c-1.651.868-3.539.732-5.05-.364-1.51-1.098-2.223-2.851-1.907-4.689l2.792-16.277c.433-2.529-.405-5.108-2.242-6.899l-11.827-11.528c-1.336-1.303-1.79-3.14-1.213-4.915s2.023-2.995 3.871-3.264l16.343-2.375c2.539-.369 4.732-1.963 5.868-4.264l7.309-14.81c.826-1.674 2.435-2.673 4.301-2.673s3.475.999 4.301 2.673l7.309 14.81c1.136 2.301 3.329 3.895 5.868 4.264l16.343 2.375c1.848.269 3.294 1.488 3.871 3.264s.123 3.612-1.213 4.915l-11.827 11.527c-1.837 1.791-2.674 4.37-2.242 6.901z" fill="#3a312a"/><path d="m215.799 72.495c1.822-1.776.817-4.87-1.701-5.236l-7.969-1.158c-1-.145-1.864-.773-2.311-1.679l-3.564-7.222c-1.126-2.281-4.38-2.281-5.506 0l-3.564 7.222c-.447.906-1.312 1.534-2.311 1.679l-7.969 1.158c-2.518.366-3.523 3.46-1.701 5.236l5.767 5.621c.724.706 1.054 1.722.883 2.717l-1.361 7.937c-.43 2.508 2.202 4.42 4.454 3.236l7.128-3.748c.894-.47 1.963-.47 2.857 0l7.128 3.748c2.252 1.184 4.884-.729 4.454-3.236l-1.361-7.937c-.171-.996.159-2.012.883-2.717z" fill="#d5de58"/><path d="m216.846 73.569c1.255-1.224 1.698-3.018 1.156-4.685-.541-1.666-1.954-2.858-3.688-3.11l-7.97-1.157c-.512-.074-.953-.396-1.183-.859l-3.563-7.222c-.775-1.571-2.346-2.547-4.098-2.547s-3.322.976-4.098 2.547l-3.563 7.222c-.229.464-.671.785-1.183.859l-7.97 1.157c-1.734.252-3.147 1.444-3.688 3.11-.542 1.667-.099 3.461 1.156 4.685l5.767 5.621c.37.36.539.88.451 1.39l-1.361 7.938c-.296 1.727.401 3.439 1.818 4.469 1.418 1.031 3.262 1.164 4.813.349l7.128-3.748c.457-.24 1.004-.241 1.461.001l7.128 3.747c.675.354 1.404.529 2.131.529.943 0 1.881-.296 2.682-.878 1.417-1.029 2.114-2.742 1.818-4.47l-1.361-7.937c-.088-.51.081-1.029.451-1.39zm-7.861 3.473c-1.077 1.05-1.568 2.563-1.314 4.046l1.361 7.936c.104.603-.13 1.177-.625 1.536-.493.358-1.112.404-1.652.119l-7.128-3.746c-.666-.351-1.396-.526-2.127-.526s-1.461.176-2.127.525l-7.128 3.747c-.541.285-1.159.239-1.652-.119-.495-.359-.729-.934-.625-1.535l1.361-7.937c.254-1.483-.237-2.996-1.314-4.046l-5.767-5.621c-.438-.427-.586-1.028-.397-1.609s.663-.98 1.268-1.068l7.97-1.157c1.489-.217 2.775-1.151 3.44-2.5l3.563-7.222c.271-.548.797-.875 1.408-.875s1.138.327 1.408.875l3.563 7.222c.665 1.349 1.951 2.283 3.44 2.5l7.97 1.157c.604.088 1.078.487 1.268 1.068.188.581.04 1.183-.397 1.609z" fill="#3a312a"/><path d="m76.799 72.495c1.822-1.776.817-4.87-1.701-5.236l-7.969-1.158c-1-.145-1.864-.773-2.311-1.679l-3.565-7.222c-1.126-2.281-4.379-2.281-5.506 0l-3.564 7.222c-.447.906-1.311 1.534-2.311 1.679l-7.969 1.158c-2.518.366-3.523 3.46-1.701 5.236l5.767 5.621c.724.706 1.054 1.722.883 2.717l-1.361 7.937c-.43 2.508 2.202 4.42 4.454 3.236l7.128-3.748c.894-.47 1.963-.47 2.857 0l7.128 3.748c2.252 1.184 4.884-.729 4.454-3.236l-1.361-7.937c-.171-.996.159-2.012.883-2.717z" fill="#d5de58"/><path d="m77.846 73.569c1.255-1.224 1.698-3.018 1.156-4.685-.541-1.666-1.954-2.858-3.689-3.11l-7.97-1.157c-.512-.074-.953-.396-1.183-.859l-3.563-7.222c-.775-1.571-2.346-2.547-4.098-2.547s-3.322.976-4.098 2.547l-3.563 7.222c-.229.464-.671.785-1.183.859l-7.97 1.157c-1.734.252-3.147 1.444-3.688 3.11-.542 1.667-.099 3.461 1.156 4.685l5.767 5.621c.37.36.539.88.451 1.39l-1.361 7.938c-.296 1.727.401 3.439 1.818 4.469 1.418 1.031 3.262 1.164 4.813.349l7.128-3.748c.457-.24 1.004-.241 1.461.001l7.128 3.747c.675.354 1.404.529 2.131.529.943 0 1.881-.296 2.682-.878 1.417-1.029 2.114-2.742 1.818-4.47l-1.361-7.937c-.088-.51.081-1.029.451-1.39zm-7.861 3.473c-1.077 1.05-1.568 2.563-1.314 4.046l1.361 7.936c.104.603-.13 1.177-.625 1.536-.493.358-1.112.404-1.652.119l-7.128-3.746c-.666-.351-1.397-.526-2.127-.526-.731 0-1.461.176-2.127.525l-7.128 3.747c-.54.285-1.159.239-1.652-.119-.495-.359-.729-.934-.625-1.535l1.361-7.937c.254-1.483-.237-2.996-1.315-4.046l-5.767-5.621c-.438-.427-.586-1.028-.397-1.609s.663-.98 1.268-1.068l7.97-1.157c1.489-.217 2.775-1.151 3.44-2.5l3.564-7.222c.271-.548.797-.875 1.408-.875s1.138.327 1.408.875l3.563 7.222c.665 1.349 1.951 2.283 3.44 2.5l7.97 1.157c.604.088 1.078.487 1.268 1.068.189.581.04 1.183-.397 1.609z" fill="#3a312a"/><path d="m59.641 167.369c-9.36-3.523-13.216-5.835-13.216-9.47 0-3.082 2.313-6.167 9.471-6.167 7.928 0 12.994 2.532 15.857 3.744l3.194-12.442c-3.635-1.763-8.59-3.307-15.968-3.635v-9.692h-10.791v10.461c-11.783 2.313-18.61 9.91-18.61 19.602 0 10.682 8.039 16.189 19.822 20.152 8.149 2.753 11.673 5.397 11.673 9.58 0 4.407-4.296 6.829-10.572 6.829-7.158 0-13.655-2.313-18.28-4.845l-3.304 12.883c4.185 2.422 11.342 4.404 18.72 4.735v10.461h10.792v-11.233c12.664-2.2 19.602-10.57 19.602-20.371 0-9.91-5.286-15.967-18.39-20.592z" fill="#87796f"/><path d="m60.17 165.965c-9.154-3.444-12.244-5.479-12.244-8.066 0-3.009 2.831-4.666 7.972-4.666 6.92 0 11.453 1.97 14.453 3.272l.818.354c.404.17.859.156 1.25-.037.392-.194.68-.549.788-.972l3.194-12.442c.177-.691-.156-1.411-.799-1.723-4.308-2.089-9.267-3.305-15.122-3.703v-8.273c0-.828-.672-1.5-1.5-1.5h-10.792c-.828 0-1.5.672-1.5 1.5v9.249c-11.515 2.683-18.61 10.569-18.61 20.813 0 12.907 11.139 18.311 20.841 21.574 8.842 2.987 10.653 5.422 10.653 8.158 0 4.944-6.943 5.329-9.071 5.329-7.872 0-14.381-2.92-17.56-4.66-.405-.223-.894-.244-1.317-.061-.426.185-.741.555-.856 1.003l-3.304 12.883c-.167.651.12 1.334.701 1.671 4.387 2.54 11.166 4.357 17.972 4.852v9.047c0 .828.672 1.5 1.5 1.5h10.792c.828 0 1.5-.672 1.5-1.5v-9.994c11.952-2.532 19.603-10.905 19.603-21.61-.001-10.629-5.8-17.211-19.362-21.998zm-1.998 40.891c-.719.125-1.243.748-1.243 1.478v9.732h-7.792v-8.961c0-.803-.631-1.463-1.433-1.498-6.219-.279-12.746-1.825-17.043-3.999l2.545-9.925c3.787 1.842 9.988 4.148 17.295 4.148 7.446 0 12.071-3.191 12.071-8.329 0-5.571-5.074-8.427-12.694-11.001-13.178-4.433-18.8-10.035-18.8-18.731 0-9.214 6.504-15.991 17.399-18.13.703-.138 1.211-.755 1.211-1.472v-8.961h7.792v8.191c0 .803.632 1.463 1.434 1.498 5.552.247 10.235 1.223 14.27 2.977l-2.446 9.53c-3.094-1.323-7.932-3.172-14.84-3.172-10.181 0-10.972 5.867-10.972 7.666 0 4.708 4.575 7.258 14.217 10.885 12.351 4.36 17.389 9.916 17.389 19.179-.001 9.687-7.036 16.927-18.36 18.895z" fill="#3a312a"/><path d="m134.167 167.369c-9.36-3.523-13.215-5.835-13.215-9.47 0-3.082 2.313-6.167 9.471-6.167 7.928 0 12.994 2.532 15.857 3.744l3.194-12.442c-3.635-1.763-8.59-3.307-15.968-3.635v-9.692h-10.792v10.461c-11.783 2.313-18.61 9.91-18.61 19.602 0 10.682 8.039 16.189 19.822 20.152 8.149 2.753 11.673 5.397 11.673 9.58 0 4.407-4.296 6.829-10.572 6.829-7.158 0-13.655-2.313-18.28-4.845l-3.303 12.883c4.185 2.422 11.342 4.404 18.72 4.735v10.461h10.792v-11.233c12.664-2.2 19.602-10.57 19.602-20.371-.001-9.91-5.288-15.967-18.391-20.592z" fill="#87796f"/><path d="m134.695 165.965c-9.154-3.444-12.244-5.48-12.244-8.066 0-3.009 2.831-4.666 7.972-4.666 6.921 0 11.638 2.049 14.455 3.273l.816.352c.403.173.86.157 1.25-.036.392-.194.68-.549.788-.972l3.194-12.442c.177-.691-.156-1.411-.799-1.723-4.308-2.089-9.267-3.305-15.122-3.703v-8.273c0-.828-.672-1.5-1.5-1.5h-10.792c-.828 0-1.5.672-1.5 1.5v9.249c-11.515 2.683-18.61 10.569-18.61 20.813 0 12.908 11.14 18.311 20.842 21.574 8.842 2.987 10.653 5.422 10.653 8.158 0 4.944-6.944 5.329-9.072 5.329-7.871 0-14.38-2.92-17.56-4.66-.407-.223-.892-.244-1.318-.061-.425.185-.74.555-.855 1.004l-3.303 12.883c-.167.65.12 1.333.701 1.67 4.387 2.54 11.166 4.357 17.972 4.852v9.047c0 .828.672 1.5 1.5 1.5h10.792c.828 0 1.5-.672 1.5-1.5v-9.994c11.952-2.532 19.602-10.905 19.602-21.61 0-10.63-5.799-17.211-19.362-21.998zm-1.997 40.891c-.719.125-1.243.748-1.243 1.478v9.732h-7.792v-8.961c0-.803-.631-1.463-1.433-1.498-6.219-.279-12.746-1.825-17.043-3.999l2.544-9.925c3.788 1.842 9.99 4.148 17.295 4.148 7.446 0 12.072-3.191 12.072-8.329 0-5.57-5.074-8.426-12.694-11.001-13.178-4.433-18.801-10.035-18.801-18.731 0-9.214 6.504-15.991 17.399-18.13.703-.138 1.211-.755 1.211-1.472v-8.961h7.792v8.191c0 .803.632 1.463 1.434 1.498 5.552.247 10.235 1.223 14.269 2.977l-2.446 9.53c-3.094-1.323-7.931-3.172-14.84-3.172-10.181 0-10.972 5.867-10.972 7.666 0 4.707 4.575 7.257 14.217 10.885 12.351 4.359 17.389 9.916 17.389 19.179.001 9.687-7.034 16.927-18.358 18.895z" fill="#3a312a"/><path d="m209.167 167.369c-9.36-3.523-13.215-5.835-13.215-9.47 0-3.082 2.313-6.167 9.471-6.167 7.928 0 12.994 2.532 15.857 3.744l3.194-12.442c-3.635-1.763-8.59-3.307-15.968-3.635v-9.692h-10.792v10.461c-11.783 2.313-18.61 9.91-18.61 19.602 0 10.682 8.039 16.189 19.822 20.152 8.149 2.753 11.673 5.397 11.673 9.58 0 4.407-4.296 6.829-10.572 6.829-7.158 0-13.655-2.313-18.28-4.845l-3.303 12.883c4.185 2.422 11.342 4.404 18.72 4.735v10.461h10.792v-11.233c12.664-2.2 19.602-10.57 19.602-20.371-.001-9.91-5.288-15.967-18.391-20.592z" fill="#87796f"/><path d="m209.695 165.965c-9.154-3.444-12.244-5.48-12.244-8.066 0-3.009 2.831-4.666 7.972-4.666 6.921 0 11.638 2.049 14.455 3.273l.816.352c.403.173.86.157 1.25-.036.392-.194.68-.549.788-.972l3.194-12.442c.177-.691-.156-1.411-.799-1.723-4.308-2.089-9.267-3.305-15.122-3.703v-8.273c0-.828-.672-1.5-1.5-1.5h-10.792c-.828 0-1.5.672-1.5 1.5v9.249c-11.515 2.683-18.61 10.569-18.61 20.813 0 12.908 11.14 18.311 20.842 21.574 8.842 2.987 10.653 5.422 10.653 8.158 0 4.944-6.944 5.329-9.072 5.329-7.871 0-14.38-2.92-17.56-4.66-.407-.223-.892-.244-1.318-.061-.425.185-.74.555-.855 1.004l-3.303 12.883c-.167.65.12 1.333.701 1.67 4.387 2.54 11.166 4.357 17.972 4.852v9.047c0 .828.672 1.5 1.5 1.5h10.792c.828 0 1.5-.672 1.5-1.5v-9.994c11.952-2.532 19.602-10.905 19.602-21.61 0-10.63-5.799-17.211-19.362-21.998zm-1.997 40.891c-.719.125-1.243.748-1.243 1.478v9.732h-7.792v-8.961c0-.803-.631-1.463-1.433-1.498-6.219-.279-12.746-1.825-17.043-3.999l2.544-9.925c3.788 1.842 9.99 4.148 17.295 4.148 7.446 0 12.072-3.191 12.072-8.329 0-5.57-5.074-8.426-12.694-11.001-13.178-4.433-18.801-10.035-18.801-18.731 0-9.214 6.504-15.991 17.399-18.13.703-.138 1.211-.755 1.211-1.472v-8.961h7.792v8.191c0 .803.632 1.463 1.434 1.498 5.552.247 10.235 1.223 14.27 2.977l-2.446 9.53c-3.094-1.323-7.931-3.172-14.84-3.172-10.181 0-10.972 5.867-10.972 7.666 0 4.707 4.575 7.257 14.217 10.885 12.351 4.359 17.389 9.916 17.389 19.179 0 9.687-7.035 16.927-18.359 18.895z" fill="#3a312a"/><path d="m225.07 109.976h-15c7.18 0 13.01 5.84 13.01 13.01v17.8c.7.28 1.38.58 2.05.9.64.31.97 1.03.8 1.72l-2.85 11.08v18.87c4.11 3.84 5.98 8.57 5.98 14.61 0 5.69-2.16 10.72-5.98 14.56v22.22c0 7.17-5.83 13.01-13.01 13.01h15c7.18 0 13.01-5.84 13.01-13.01v-101.76c0-7.17-5.83-13.01-13.01-13.01z" fill="#decaad"/></svg>